<mxfile host="Electron" agent="Mozilla/5.0 (Windows NT 10.0; Win64; x64) AppleWebKit/537.36 (KHTML, like Gecko) draw.io/27.0.9 Chrome/134.0.6998.205 Electron/35.4.0 Safari/537.36" version="27.0.9">
  <diagram name="Page-1" id="1v5wK0HeZ9IP5dgijdlH">
    <mxGraphModel dx="3757" dy="2923" grid="1" gridSize="10" guides="1" tooltips="1" connect="1" arrows="1" fold="1" page="1" pageScale="1" pageWidth="850" pageHeight="1100" math="0" shadow="0">
      <root>
        <mxCell id="0" />
        <mxCell id="1" parent="0" />
        <mxCell id="NLO29iDs0YhnoxonNSA7-6" value="Transaksi" style="swimlane;fontStyle=1;align=center;verticalAlign=top;childLayout=stackLayout;horizontal=1;startSize=26;horizontalStack=0;resizeParent=1;resizeParentMax=0;resizeLast=0;collapsible=1;marginBottom=0;whiteSpace=wrap;html=1;" parent="1" vertex="1">
          <mxGeometry x="540" y="400" width="160" height="268" as="geometry" />
        </mxCell>
        <mxCell id="NLO29iDs0YhnoxonNSA7-75" value="- nama_obat : string" style="text;strokeColor=none;fillColor=none;align=left;verticalAlign=top;spacingLeft=4;spacingRight=4;overflow=hidden;rotatable=0;points=[[0,0.5],[1,0.5]];portConstraint=eastwest;whiteSpace=wrap;html=1;" parent="NLO29iDs0YhnoxonNSA7-6" vertex="1">
          <mxGeometry y="26" width="160" height="26" as="geometry" />
        </mxCell>
        <mxCell id="NLO29iDs0YhnoxonNSA7-84" value="- jumlah_obat ; string" style="text;strokeColor=none;fillColor=none;align=left;verticalAlign=top;spacingLeft=4;spacingRight=4;overflow=hidden;rotatable=0;points=[[0,0.5],[1,0.5]];portConstraint=eastwest;whiteSpace=wrap;html=1;" parent="NLO29iDs0YhnoxonNSA7-6" vertex="1">
          <mxGeometry y="52" width="160" height="26" as="geometry" />
        </mxCell>
        <mxCell id="NLO29iDs0YhnoxonNSA7-77" value="- nama_pasien : string" style="text;strokeColor=none;fillColor=none;align=left;verticalAlign=top;spacingLeft=4;spacingRight=4;overflow=hidden;rotatable=0;points=[[0,0.5],[1,0.5]];portConstraint=eastwest;whiteSpace=wrap;html=1;" parent="NLO29iDs0YhnoxonNSA7-6" vertex="1">
          <mxGeometry y="78" width="160" height="26" as="geometry" />
        </mxCell>
        <mxCell id="NLO29iDs0YhnoxonNSA7-78" value="- tanggal : date" style="text;strokeColor=none;fillColor=none;align=left;verticalAlign=top;spacingLeft=4;spacingRight=4;overflow=hidden;rotatable=0;points=[[0,0.5],[1,0.5]];portConstraint=eastwest;whiteSpace=wrap;html=1;" parent="NLO29iDs0YhnoxonNSA7-6" vertex="1">
          <mxGeometry y="104" width="160" height="26" as="geometry" />
        </mxCell>
        <mxCell id="NLO29iDs0YhnoxonNSA7-85" value="- total_harga : float" style="text;strokeColor=none;fillColor=none;align=left;verticalAlign=top;spacingLeft=4;spacingRight=4;overflow=hidden;rotatable=0;points=[[0,0.5],[1,0.5]];portConstraint=eastwest;whiteSpace=wrap;html=1;" parent="NLO29iDs0YhnoxonNSA7-6" vertex="1">
          <mxGeometry y="130" width="160" height="26" as="geometry" />
        </mxCell>
        <mxCell id="NLO29iDs0YhnoxonNSA7-86" value="- deskripsi : string" style="text;strokeColor=none;fillColor=none;align=left;verticalAlign=top;spacingLeft=4;spacingRight=4;overflow=hidden;rotatable=0;points=[[0,0.5],[1,0.5]];portConstraint=eastwest;whiteSpace=wrap;html=1;" parent="NLO29iDs0YhnoxonNSA7-6" vertex="1">
          <mxGeometry y="156" width="160" height="26" as="geometry" />
        </mxCell>
        <mxCell id="NLO29iDs0YhnoxonNSA7-8" value="" style="line;strokeWidth=1;fillColor=none;align=left;verticalAlign=middle;spacingTop=-1;spacingLeft=3;spacingRight=3;rotatable=0;labelPosition=right;points=[];portConstraint=eastwest;strokeColor=inherit;" parent="NLO29iDs0YhnoxonNSA7-6" vertex="1">
          <mxGeometry y="182" width="160" height="8" as="geometry" />
        </mxCell>
        <mxCell id="NLO29iDs0YhnoxonNSA7-59" value="+ lakukan_transaksi()" style="text;strokeColor=none;fillColor=none;align=left;verticalAlign=top;spacingLeft=4;spacingRight=4;overflow=hidden;rotatable=0;points=[[0,0.5],[1,0.5]];portConstraint=eastwest;whiteSpace=wrap;html=1;" parent="NLO29iDs0YhnoxonNSA7-6" vertex="1">
          <mxGeometry y="190" width="160" height="26" as="geometry" />
        </mxCell>
        <mxCell id="NLO29iDs0YhnoxonNSA7-9" value="+ cari_transaksi()" style="text;strokeColor=none;fillColor=none;align=left;verticalAlign=top;spacingLeft=4;spacingRight=4;overflow=hidden;rotatable=0;points=[[0,0.5],[1,0.5]];portConstraint=eastwest;whiteSpace=wrap;html=1;" parent="NLO29iDs0YhnoxonNSA7-6" vertex="1">
          <mxGeometry y="216" width="160" height="26" as="geometry" />
        </mxCell>
        <mxCell id="NLO29iDs0YhnoxonNSA7-60" value="+ riwayat_transaksi()" style="text;strokeColor=none;fillColor=none;align=left;verticalAlign=top;spacingLeft=4;spacingRight=4;overflow=hidden;rotatable=0;points=[[0,0.5],[1,0.5]];portConstraint=eastwest;whiteSpace=wrap;html=1;" parent="NLO29iDs0YhnoxonNSA7-6" vertex="1">
          <mxGeometry y="242" width="160" height="26" as="geometry" />
        </mxCell>
        <mxCell id="NLO29iDs0YhnoxonNSA7-160" style="edgeStyle=orthogonalEdgeStyle;rounded=0;orthogonalLoop=1;jettySize=auto;html=1;endArrow=none;startFill=0;" parent="1" source="NLO29iDs0YhnoxonNSA7-10" target="NLO29iDs0YhnoxonNSA7-27" edge="1">
          <mxGeometry relative="1" as="geometry">
            <Array as="points">
              <mxPoint x="370" y="300" />
              <mxPoint x="370" y="330" />
            </Array>
          </mxGeometry>
        </mxCell>
        <mxCell id="NLO29iDs0YhnoxonNSA7-10" value="Peringatan kadaluarsa" style="swimlane;fontStyle=1;align=center;verticalAlign=top;childLayout=stackLayout;horizontal=1;startSize=26;horizontalStack=0;resizeParent=1;resizeParentMax=0;resizeLast=0;collapsible=1;marginBottom=0;whiteSpace=wrap;html=1;" parent="1" vertex="1">
          <mxGeometry x="540" y="210" width="200" height="164" as="geometry" />
        </mxCell>
        <mxCell id="NLO29iDs0YhnoxonNSA7-11" value="- obat_sudah_kadalurasa : string" style="text;strokeColor=none;fillColor=none;align=left;verticalAlign=top;spacingLeft=4;spacingRight=4;overflow=hidden;rotatable=0;points=[[0,0.5],[1,0.5]];portConstraint=eastwest;whiteSpace=wrap;html=1;" parent="NLO29iDs0YhnoxonNSA7-10" vertex="1">
          <mxGeometry y="26" width="200" height="26" as="geometry" />
        </mxCell>
        <mxCell id="NLO29iDs0YhnoxonNSA7-12" value="" style="line;strokeWidth=1;fillColor=none;align=left;verticalAlign=middle;spacingTop=-1;spacingLeft=3;spacingRight=3;rotatable=0;labelPosition=right;points=[];portConstraint=eastwest;strokeColor=inherit;" parent="NLO29iDs0YhnoxonNSA7-10" vertex="1">
          <mxGeometry y="52" width="200" height="8" as="geometry" />
        </mxCell>
        <mxCell id="NLO29iDs0YhnoxonNSA7-95" value="+ cek_kadaluarsa()" style="text;strokeColor=none;fillColor=none;align=left;verticalAlign=top;spacingLeft=4;spacingRight=4;overflow=hidden;rotatable=0;points=[[0,0.5],[1,0.5]];portConstraint=eastwest;whiteSpace=wrap;html=1;" parent="NLO29iDs0YhnoxonNSA7-10" vertex="1">
          <mxGeometry y="60" width="200" height="26" as="geometry" />
        </mxCell>
        <mxCell id="NLO29iDs0YhnoxonNSA7-96" value="+ beri_notifikasi_peringatan()" style="text;strokeColor=none;fillColor=none;align=left;verticalAlign=top;spacingLeft=4;spacingRight=4;overflow=hidden;rotatable=0;points=[[0,0.5],[1,0.5]];portConstraint=eastwest;whiteSpace=wrap;html=1;" parent="NLO29iDs0YhnoxonNSA7-10" vertex="1">
          <mxGeometry y="86" width="200" height="26" as="geometry" />
        </mxCell>
        <mxCell id="NLO29iDs0YhnoxonNSA7-97" value="+ tandai_obat_tidak_layak()" style="text;strokeColor=none;fillColor=none;align=left;verticalAlign=top;spacingLeft=4;spacingRight=4;overflow=hidden;rotatable=0;points=[[0,0.5],[1,0.5]];portConstraint=eastwest;whiteSpace=wrap;html=1;" parent="NLO29iDs0YhnoxonNSA7-10" vertex="1">
          <mxGeometry y="112" width="200" height="26" as="geometry" />
        </mxCell>
        <mxCell id="NLO29iDs0YhnoxonNSA7-13" value="+ karantina_obat()" style="text;strokeColor=none;fillColor=none;align=left;verticalAlign=top;spacingLeft=4;spacingRight=4;overflow=hidden;rotatable=0;points=[[0,0.5],[1,0.5]];portConstraint=eastwest;whiteSpace=wrap;html=1;" parent="NLO29iDs0YhnoxonNSA7-10" vertex="1">
          <mxGeometry y="138" width="200" height="26" as="geometry" />
        </mxCell>
        <mxCell id="NLO29iDs0YhnoxonNSA7-163" style="edgeStyle=orthogonalEdgeStyle;rounded=0;orthogonalLoop=1;jettySize=auto;html=1;startArrow=diamond;startFill=0;endArrow=none;endFill=1;startSize=13;endSize=9;" parent="1" source="NLO29iDs0YhnoxonNSA7-14" target="NLO29iDs0YhnoxonNSA7-6" edge="1">
          <mxGeometry relative="1" as="geometry">
            <Array as="points">
              <mxPoint x="430" y="-120" />
              <mxPoint x="430" y="500" />
            </Array>
          </mxGeometry>
        </mxCell>
        <mxCell id="NLO29iDs0YhnoxonNSA7-164" style="edgeStyle=orthogonalEdgeStyle;rounded=0;orthogonalLoop=1;jettySize=auto;html=1;startArrow=diamond;startFill=0;endArrow=none;endFill=1;endSize=9;startSize=13;" parent="1" source="NLO29iDs0YhnoxonNSA7-14" target="NLO29iDs0YhnoxonNSA7-22" edge="1">
          <mxGeometry relative="1" as="geometry">
            <Array as="points">
              <mxPoint x="500" y="-40" />
              <mxPoint x="500" y="60" />
            </Array>
          </mxGeometry>
        </mxCell>
        <mxCell id="NLO29iDs0YhnoxonNSA7-165" style="edgeStyle=orthogonalEdgeStyle;rounded=0;orthogonalLoop=1;jettySize=auto;html=1;startArrow=diamond;startFill=0;startSize=13;endSize=9;endArrow=none;endFill=1;" parent="1" source="NLO29iDs0YhnoxonNSA7-14" target="NLO29iDs0YhnoxonNSA7-10" edge="1">
          <mxGeometry relative="1" as="geometry">
            <Array as="points">
              <mxPoint x="470" y="-80" />
              <mxPoint x="470" y="290" />
            </Array>
          </mxGeometry>
        </mxCell>
        <mxCell id="NLO29iDs0YhnoxonNSA7-14" value="Laporan dan statistik" style="swimlane;fontStyle=1;align=center;verticalAlign=top;childLayout=stackLayout;horizontal=1;startSize=26;horizontalStack=0;resizeParent=1;resizeParentMax=0;resizeLast=0;collapsible=1;marginBottom=0;whiteSpace=wrap;html=1;" parent="1" vertex="1">
          <mxGeometry x="540" y="-160" width="160" height="130" as="geometry" />
        </mxCell>
        <mxCell id="NLO29iDs0YhnoxonNSA7-17" value="+ buat_laporan()" style="text;strokeColor=none;fillColor=none;align=left;verticalAlign=top;spacingLeft=4;spacingRight=4;overflow=hidden;rotatable=0;points=[[0,0.5],[1,0.5]];portConstraint=eastwest;whiteSpace=wrap;html=1;" parent="NLO29iDs0YhnoxonNSA7-14" vertex="1">
          <mxGeometry y="26" width="160" height="26" as="geometry" />
        </mxCell>
        <mxCell id="NLO29iDs0YhnoxonNSA7-99" value="+ lihat_statistik()" style="text;strokeColor=none;fillColor=none;align=left;verticalAlign=top;spacingLeft=4;spacingRight=4;overflow=hidden;rotatable=0;points=[[0,0.5],[1,0.5]];portConstraint=eastwest;whiteSpace=wrap;html=1;" parent="NLO29iDs0YhnoxonNSA7-14" vertex="1">
          <mxGeometry y="52" width="160" height="26" as="geometry" />
        </mxCell>
        <mxCell id="NLO29iDs0YhnoxonNSA7-101" value="+ unduh_laporan()" style="text;strokeColor=none;fillColor=none;align=left;verticalAlign=top;spacingLeft=4;spacingRight=4;overflow=hidden;rotatable=0;points=[[0,0.5],[1,0.5]];portConstraint=eastwest;whiteSpace=wrap;html=1;" parent="NLO29iDs0YhnoxonNSA7-14" vertex="1">
          <mxGeometry y="78" width="160" height="26" as="geometry" />
        </mxCell>
        <mxCell id="NLO29iDs0YhnoxonNSA7-100" value="+ filter_laporan()" style="text;strokeColor=none;fillColor=none;align=left;verticalAlign=top;spacingLeft=4;spacingRight=4;overflow=hidden;rotatable=0;points=[[0,0.5],[1,0.5]];portConstraint=eastwest;whiteSpace=wrap;html=1;" parent="NLO29iDs0YhnoxonNSA7-14" vertex="1">
          <mxGeometry y="104" width="160" height="26" as="geometry" />
        </mxCell>
        <mxCell id="NLO29iDs0YhnoxonNSA7-161" style="edgeStyle=orthogonalEdgeStyle;rounded=0;orthogonalLoop=1;jettySize=auto;html=1;endArrow=blockThin;startFill=1;startArrow=diamond;endFill=1;startSize=13;endSize=9;" parent="1" source="NLO29iDs0YhnoxonNSA7-22" target="NLO29iDs0YhnoxonNSA7-27" edge="1">
          <mxGeometry relative="1" as="geometry">
            <Array as="points">
              <mxPoint x="340" y="100" />
              <mxPoint x="340" y="260" />
            </Array>
          </mxGeometry>
        </mxCell>
        <mxCell id="NLO29iDs0YhnoxonNSA7-22" value="Manajemen Stok obat" style="swimlane;fontStyle=1;align=center;verticalAlign=top;childLayout=stackLayout;horizontal=1;startSize=26;horizontalStack=0;resizeParent=1;resizeParentMax=0;resizeLast=0;collapsible=1;marginBottom=0;whiteSpace=wrap;html=1;" parent="1" vertex="1">
          <mxGeometry x="540" y="-10" width="190" height="190" as="geometry" />
        </mxCell>
        <mxCell id="NLO29iDs0YhnoxonNSA7-23" value="- riwayat_perubahan_stok : int" style="text;strokeColor=none;fillColor=none;align=left;verticalAlign=top;spacingLeft=4;spacingRight=4;overflow=hidden;rotatable=0;points=[[0,0.5],[1,0.5]];portConstraint=eastwest;whiteSpace=wrap;html=1;" parent="NLO29iDs0YhnoxonNSA7-22" vertex="1">
          <mxGeometry y="26" width="190" height="26" as="geometry" />
        </mxCell>
        <mxCell id="NLO29iDs0YhnoxonNSA7-24" value="" style="line;strokeWidth=1;fillColor=none;align=left;verticalAlign=middle;spacingTop=-1;spacingLeft=3;spacingRight=3;rotatable=0;labelPosition=right;points=[];portConstraint=eastwest;strokeColor=inherit;" parent="NLO29iDs0YhnoxonNSA7-22" vertex="1">
          <mxGeometry y="52" width="190" height="8" as="geometry" />
        </mxCell>
        <mxCell id="NLO29iDs0YhnoxonNSA7-57" value="+ cek_ketersediaan_obat()" style="text;strokeColor=none;fillColor=none;align=left;verticalAlign=top;spacingLeft=4;spacingRight=4;overflow=hidden;rotatable=0;points=[[0,0.5],[1,0.5]];portConstraint=eastwest;whiteSpace=wrap;html=1;" parent="NLO29iDs0YhnoxonNSA7-22" vertex="1">
          <mxGeometry y="60" width="190" height="26" as="geometry" />
        </mxCell>
        <mxCell id="NLO29iDs0YhnoxonNSA7-56" value="+ lihat_daftar_obat()" style="text;strokeColor=none;fillColor=none;align=left;verticalAlign=top;spacingLeft=4;spacingRight=4;overflow=hidden;rotatable=0;points=[[0,0.5],[1,0.5]];portConstraint=eastwest;whiteSpace=wrap;html=1;" parent="NLO29iDs0YhnoxonNSA7-22" vertex="1">
          <mxGeometry y="86" width="190" height="26" as="geometry" />
        </mxCell>
        <mxCell id="NLO29iDs0YhnoxonNSA7-54" value="+ tambah_data_obat()" style="text;strokeColor=none;fillColor=none;align=left;verticalAlign=top;spacingLeft=4;spacingRight=4;overflow=hidden;rotatable=0;points=[[0,0.5],[1,0.5]];portConstraint=eastwest;whiteSpace=wrap;html=1;" parent="NLO29iDs0YhnoxonNSA7-22" vertex="1">
          <mxGeometry y="112" width="190" height="26" as="geometry" />
        </mxCell>
        <mxCell id="NLO29iDs0YhnoxonNSA7-55" value="+ ubah_data_obat()" style="text;strokeColor=none;fillColor=none;align=left;verticalAlign=top;spacingLeft=4;spacingRight=4;overflow=hidden;rotatable=0;points=[[0,0.5],[1,0.5]];portConstraint=eastwest;whiteSpace=wrap;html=1;" parent="NLO29iDs0YhnoxonNSA7-22" vertex="1">
          <mxGeometry y="138" width="190" height="26" as="geometry" />
        </mxCell>
        <mxCell id="NLO29iDs0YhnoxonNSA7-25" value="+ hapus_obat()" style="text;strokeColor=none;fillColor=none;align=left;verticalAlign=top;spacingLeft=4;spacingRight=4;overflow=hidden;rotatable=0;points=[[0,0.5],[1,0.5]];portConstraint=eastwest;whiteSpace=wrap;html=1;" parent="NLO29iDs0YhnoxonNSA7-22" vertex="1">
          <mxGeometry y="164" width="190" height="26" as="geometry" />
        </mxCell>
        <mxCell id="NLO29iDs0YhnoxonNSA7-145" style="edgeStyle=orthogonalEdgeStyle;rounded=0;orthogonalLoop=1;jettySize=auto;html=1;endArrow=none;startFill=0;" parent="1" source="NLO29iDs0YhnoxonNSA7-27" target="NLO29iDs0YhnoxonNSA7-6" edge="1">
          <mxGeometry relative="1" as="geometry">
            <Array as="points">
              <mxPoint x="360" y="390" />
              <mxPoint x="360" y="550" />
            </Array>
          </mxGeometry>
        </mxCell>
        <mxCell id="NLO29iDs0YhnoxonNSA7-27" value="Obat" style="swimlane;fontStyle=1;align=center;verticalAlign=top;childLayout=stackLayout;horizontal=1;startSize=26;horizontalStack=0;resizeParent=1;resizeParentMax=0;resizeLast=0;collapsible=1;marginBottom=0;whiteSpace=wrap;html=1;" parent="1" vertex="1">
          <mxGeometry x="40" y="180" width="160" height="260" as="geometry" />
        </mxCell>
        <mxCell id="NLO29iDs0YhnoxonNSA7-28" value="- nama_obat : string" style="text;strokeColor=none;fillColor=none;align=left;verticalAlign=top;spacingLeft=4;spacingRight=4;overflow=hidden;rotatable=0;points=[[0,0.5],[1,0.5]];portConstraint=eastwest;whiteSpace=wrap;html=1;" parent="NLO29iDs0YhnoxonNSA7-27" vertex="1">
          <mxGeometry y="26" width="160" height="26" as="geometry" />
        </mxCell>
        <mxCell id="NLO29iDs0YhnoxonNSA7-50" value="- kode_obat : string" style="text;strokeColor=none;fillColor=none;align=left;verticalAlign=top;spacingLeft=4;spacingRight=4;overflow=hidden;rotatable=0;points=[[0,0.5],[1,0.5]];portConstraint=eastwest;whiteSpace=wrap;html=1;" parent="NLO29iDs0YhnoxonNSA7-27" vertex="1">
          <mxGeometry y="52" width="160" height="26" as="geometry" />
        </mxCell>
        <mxCell id="NLO29iDs0YhnoxonNSA7-51" value="- jenis_obat&amp;nbsp; : string" style="text;strokeColor=none;fillColor=none;align=left;verticalAlign=top;spacingLeft=4;spacingRight=4;overflow=hidden;rotatable=0;points=[[0,0.5],[1,0.5]];portConstraint=eastwest;whiteSpace=wrap;html=1;" parent="NLO29iDs0YhnoxonNSA7-27" vertex="1">
          <mxGeometry y="78" width="160" height="26" as="geometry" />
        </mxCell>
        <mxCell id="NLO29iDs0YhnoxonNSA7-48" value="- dosis : string" style="text;strokeColor=none;fillColor=none;align=left;verticalAlign=top;spacingLeft=4;spacingRight=4;overflow=hidden;rotatable=0;points=[[0,0.5],[1,0.5]];portConstraint=eastwest;whiteSpace=wrap;html=1;" parent="NLO29iDs0YhnoxonNSA7-27" vertex="1">
          <mxGeometry y="104" width="160" height="26" as="geometry" />
        </mxCell>
        <mxCell id="NLO29iDs0YhnoxonNSA7-52" value="- tanggal_kadaluarsa : date" style="text;strokeColor=none;fillColor=none;align=left;verticalAlign=top;spacingLeft=4;spacingRight=4;overflow=hidden;rotatable=0;points=[[0,0.5],[1,0.5]];portConstraint=eastwest;whiteSpace=wrap;html=1;" parent="NLO29iDs0YhnoxonNSA7-27" vertex="1">
          <mxGeometry y="130" width="160" height="26" as="geometry" />
        </mxCell>
        <mxCell id="NLO29iDs0YhnoxonNSA7-93" value="- stok_awal : int" style="text;strokeColor=none;fillColor=none;align=left;verticalAlign=top;spacingLeft=4;spacingRight=4;overflow=hidden;rotatable=0;points=[[0,0.5],[1,0.5]];portConstraint=eastwest;whiteSpace=wrap;html=1;" parent="NLO29iDs0YhnoxonNSA7-27" vertex="1">
          <mxGeometry y="156" width="160" height="26" as="geometry" />
        </mxCell>
        <mxCell id="NLO29iDs0YhnoxonNSA7-92" value="- stok : int" style="text;strokeColor=none;fillColor=none;align=left;verticalAlign=top;spacingLeft=4;spacingRight=4;overflow=hidden;rotatable=0;points=[[0,0.5],[1,0.5]];portConstraint=eastwest;whiteSpace=wrap;html=1;" parent="NLO29iDs0YhnoxonNSA7-27" vertex="1">
          <mxGeometry y="182" width="160" height="26" as="geometry" />
        </mxCell>
        <mxCell id="NLO29iDs0YhnoxonNSA7-53" value="- pabrik : string" style="text;strokeColor=none;fillColor=none;align=left;verticalAlign=top;spacingLeft=4;spacingRight=4;overflow=hidden;rotatable=0;points=[[0,0.5],[1,0.5]];portConstraint=eastwest;whiteSpace=wrap;html=1;" parent="NLO29iDs0YhnoxonNSA7-27" vertex="1">
          <mxGeometry y="208" width="160" height="26" as="geometry" />
        </mxCell>
        <mxCell id="NLO29iDs0YhnoxonNSA7-49" value="- harga : float" style="text;strokeColor=none;fillColor=none;align=left;verticalAlign=top;spacingLeft=4;spacingRight=4;overflow=hidden;rotatable=0;points=[[0,0.5],[1,0.5]];portConstraint=eastwest;whiteSpace=wrap;html=1;" parent="NLO29iDs0YhnoxonNSA7-27" vertex="1">
          <mxGeometry y="234" width="160" height="26" as="geometry" />
        </mxCell>
        <mxCell id="NLO29iDs0YhnoxonNSA7-129" style="edgeStyle=orthogonalEdgeStyle;rounded=0;orthogonalLoop=1;jettySize=auto;html=1;endArrow=blockThin;endFill=1;endSize=9;" parent="1" source="NLO29iDs0YhnoxonNSA7-137" target="NLO29iDs0YhnoxonNSA7-6" edge="1">
          <mxGeometry relative="1" as="geometry">
            <mxPoint x="1140" y="249" as="sourcePoint" />
            <Array as="points">
              <mxPoint x="1140" y="350" />
              <mxPoint x="860" y="350" />
              <mxPoint x="860" y="410" />
              <mxPoint x="780" y="410" />
              <mxPoint x="780" y="500" />
            </Array>
          </mxGeometry>
        </mxCell>
        <mxCell id="NLO29iDs0YhnoxonNSA7-130" style="edgeStyle=orthogonalEdgeStyle;rounded=0;orthogonalLoop=1;jettySize=auto;html=1;endArrow=blockThin;endFill=1;endSize=9;" parent="1" source="NLO29iDs0YhnoxonNSA7-137" target="NLO29iDs0YhnoxonNSA7-10" edge="1">
          <mxGeometry relative="1" as="geometry">
            <mxPoint x="1060" y="223" as="sourcePoint" />
            <Array as="points">
              <mxPoint x="900" y="240" />
              <mxPoint x="900" y="292" />
            </Array>
          </mxGeometry>
        </mxCell>
        <mxCell id="NLO29iDs0YhnoxonNSA7-131" style="edgeStyle=orthogonalEdgeStyle;rounded=0;orthogonalLoop=1;jettySize=auto;html=1;endArrow=blockThin;endFill=1;endSize=9;" parent="1" source="NLO29iDs0YhnoxonNSA7-137" target="NLO29iDs0YhnoxonNSA7-22" edge="1">
          <mxGeometry relative="1" as="geometry">
            <mxPoint x="1090" y="150" as="sourcePoint" />
            <Array as="points">
              <mxPoint x="900" y="220" />
              <mxPoint x="900" y="100" />
            </Array>
          </mxGeometry>
        </mxCell>
        <mxCell id="NLO29iDs0YhnoxonNSA7-132" style="edgeStyle=orthogonalEdgeStyle;rounded=0;orthogonalLoop=1;jettySize=auto;html=1;endArrow=blockThin;endFill=1;endSize=9;" parent="1" source="NLO29iDs0YhnoxonNSA7-137" target="NLO29iDs0YhnoxonNSA7-14" edge="1">
          <mxGeometry relative="1" as="geometry">
            <mxPoint x="1140" y="197" as="sourcePoint" />
            <Array as="points">
              <mxPoint x="1140" y="50" />
              <mxPoint x="800" y="50" />
              <mxPoint x="800" y="-70" />
            </Array>
          </mxGeometry>
        </mxCell>
        <mxCell id="NLO29iDs0YhnoxonNSA7-80" style="edgeStyle=orthogonalEdgeStyle;rounded=0;orthogonalLoop=1;jettySize=auto;html=1;endArrow=diamond;startFill=1;endFill=1;endSize=13;startArrow=blockThin;startSize=9;" parent="1" source="NLO29iDs0YhnoxonNSA7-61" target="NLO29iDs0YhnoxonNSA7-6" edge="1">
          <mxGeometry relative="1" as="geometry">
            <Array as="points">
              <mxPoint x="760" y="590" />
              <mxPoint x="760" y="590" />
            </Array>
          </mxGeometry>
        </mxCell>
        <mxCell id="NLO29iDs0YhnoxonNSA7-61" value="Riwayat_transaksi" style="swimlane;fontStyle=1;align=center;verticalAlign=top;childLayout=stackLayout;horizontal=1;startSize=26;horizontalStack=0;resizeParent=1;resizeParentMax=0;resizeLast=0;collapsible=1;marginBottom=0;whiteSpace=wrap;html=1;" parent="1" vertex="1">
          <mxGeometry x="820" y="550" width="160" height="112" as="geometry" />
        </mxCell>
        <mxCell id="NLO29iDs0YhnoxonNSA7-66" value="- tanggal_transaksi : date" style="text;strokeColor=none;fillColor=none;align=left;verticalAlign=top;spacingLeft=4;spacingRight=4;overflow=hidden;rotatable=0;points=[[0,0.5],[1,0.5]];portConstraint=eastwest;whiteSpace=wrap;html=1;" parent="NLO29iDs0YhnoxonNSA7-61" vertex="1">
          <mxGeometry y="26" width="160" height="26" as="geometry" />
        </mxCell>
        <mxCell id="NLO29iDs0YhnoxonNSA7-89" value="- nama_pasien : string" style="text;strokeColor=none;fillColor=none;align=left;verticalAlign=top;spacingLeft=4;spacingRight=4;overflow=hidden;rotatable=0;points=[[0,0.5],[1,0.5]];portConstraint=eastwest;whiteSpace=wrap;html=1;" parent="NLO29iDs0YhnoxonNSA7-61" vertex="1">
          <mxGeometry y="52" width="160" height="26" as="geometry" />
        </mxCell>
        <mxCell id="NLO29iDs0YhnoxonNSA7-63" value="" style="line;strokeWidth=1;fillColor=none;align=left;verticalAlign=middle;spacingTop=-1;spacingLeft=3;spacingRight=3;rotatable=0;labelPosition=right;points=[];portConstraint=eastwest;strokeColor=inherit;" parent="NLO29iDs0YhnoxonNSA7-61" vertex="1">
          <mxGeometry y="78" width="160" height="8" as="geometry" />
        </mxCell>
        <mxCell id="NLO29iDs0YhnoxonNSA7-87" value="+ lihat_transaksi()" style="text;strokeColor=none;fillColor=none;align=left;verticalAlign=top;spacingLeft=4;spacingRight=4;overflow=hidden;rotatable=0;points=[[0,0.5],[1,0.5]];portConstraint=eastwest;whiteSpace=wrap;html=1;" parent="NLO29iDs0YhnoxonNSA7-61" vertex="1">
          <mxGeometry y="86" width="160" height="26" as="geometry" />
        </mxCell>
        <mxCell id="NLO29iDs0YhnoxonNSA7-83" style="edgeStyle=orthogonalEdgeStyle;rounded=0;orthogonalLoop=1;jettySize=auto;html=1;endArrow=diamond;startFill=1;endFill=1;endSize=13;startArrow=blockThin;startSize=9;" parent="1" source="NLO29iDs0YhnoxonNSA7-67" target="NLO29iDs0YhnoxonNSA7-6" edge="1">
          <mxGeometry relative="1" as="geometry">
            <Array as="points">
              <mxPoint x="1010" y="500" />
              <mxPoint x="805" y="500" />
              <mxPoint x="805" y="550" />
            </Array>
          </mxGeometry>
        </mxCell>
        <mxCell id="NLO29iDs0YhnoxonNSA7-67" value="Cari transaksi" style="swimlane;fontStyle=1;align=center;verticalAlign=top;childLayout=stackLayout;horizontal=1;startSize=26;horizontalStack=0;resizeParent=1;resizeParentMax=0;resizeLast=0;collapsible=1;marginBottom=0;whiteSpace=wrap;html=1;" parent="1" vertex="1">
          <mxGeometry x="910" y="380" width="200" height="78" as="geometry" />
        </mxCell>
        <mxCell id="NLO29iDs0YhnoxonNSA7-90" value="+ masukan_tanggal_transaksi()" style="text;strokeColor=none;fillColor=none;align=left;verticalAlign=top;spacingLeft=4;spacingRight=4;overflow=hidden;rotatable=0;points=[[0,0.5],[1,0.5]];portConstraint=eastwest;whiteSpace=wrap;html=1;" parent="NLO29iDs0YhnoxonNSA7-67" vertex="1">
          <mxGeometry y="26" width="200" height="26" as="geometry" />
        </mxCell>
        <mxCell id="NLO29iDs0YhnoxonNSA7-70" value="+ masukan_nama_pasien()" style="text;strokeColor=none;fillColor=none;align=left;verticalAlign=top;spacingLeft=4;spacingRight=4;overflow=hidden;rotatable=0;points=[[0,0.5],[1,0.5]];portConstraint=eastwest;whiteSpace=wrap;html=1;" parent="NLO29iDs0YhnoxonNSA7-67" vertex="1">
          <mxGeometry y="52" width="200" height="26" as="geometry" />
        </mxCell>
        <mxCell id="NLO29iDs0YhnoxonNSA7-133" style="edgeStyle=orthogonalEdgeStyle;rounded=0;orthogonalLoop=1;jettySize=auto;html=1;endArrow=diamond;startFill=0;endFill=1;endSize=13;" parent="1" source="NLO29iDs0YhnoxonNSA7-106" target="NLO29iDs0YhnoxonNSA7-14" edge="1">
          <mxGeometry relative="1" as="geometry">
            <Array as="points">
              <mxPoint x="830" y="-95" />
              <mxPoint x="830" y="-95" />
            </Array>
          </mxGeometry>
        </mxCell>
        <mxCell id="NLO29iDs0YhnoxonNSA7-106" value="Buat_laporan" style="swimlane;fontStyle=1;align=center;verticalAlign=top;childLayout=stackLayout;horizontal=1;startSize=26;horizontalStack=0;resizeParent=1;resizeParentMax=0;resizeLast=0;collapsible=1;marginBottom=0;whiteSpace=wrap;html=1;" parent="1" vertex="1">
          <mxGeometry x="855" y="-110" width="160" height="130" as="geometry" />
        </mxCell>
        <mxCell id="NLO29iDs0YhnoxonNSA7-107" value="- jenis_laporan : string" style="text;strokeColor=none;fillColor=none;align=left;verticalAlign=top;spacingLeft=4;spacingRight=4;overflow=hidden;rotatable=0;points=[[0,0.5],[1,0.5]];portConstraint=eastwest;whiteSpace=wrap;html=1;" parent="NLO29iDs0YhnoxonNSA7-106" vertex="1">
          <mxGeometry y="26" width="160" height="26" as="geometry" />
        </mxCell>
        <mxCell id="NLO29iDs0YhnoxonNSA7-111" value="- judul : string" style="text;strokeColor=none;fillColor=none;align=left;verticalAlign=top;spacingLeft=4;spacingRight=4;overflow=hidden;rotatable=0;points=[[0,0.5],[1,0.5]];portConstraint=eastwest;whiteSpace=wrap;html=1;" parent="NLO29iDs0YhnoxonNSA7-106" vertex="1">
          <mxGeometry y="52" width="160" height="26" as="geometry" />
        </mxCell>
        <mxCell id="NLO29iDs0YhnoxonNSA7-113" value="- periode : date" style="text;strokeColor=none;fillColor=none;align=left;verticalAlign=top;spacingLeft=4;spacingRight=4;overflow=hidden;rotatable=0;points=[[0,0.5],[1,0.5]];portConstraint=eastwest;whiteSpace=wrap;html=1;" parent="NLO29iDs0YhnoxonNSA7-106" vertex="1">
          <mxGeometry y="78" width="160" height="26" as="geometry" />
        </mxCell>
        <mxCell id="NLO29iDs0YhnoxonNSA7-108" value="- tanggal_dibuat : date" style="text;strokeColor=none;fillColor=none;align=left;verticalAlign=top;spacingLeft=4;spacingRight=4;overflow=hidden;rotatable=0;points=[[0,0.5],[1,0.5]];portConstraint=eastwest;whiteSpace=wrap;html=1;" parent="NLO29iDs0YhnoxonNSA7-106" vertex="1">
          <mxGeometry y="104" width="160" height="26" as="geometry" />
        </mxCell>
        <mxCell id="NLO29iDs0YhnoxonNSA7-134" style="edgeStyle=orthogonalEdgeStyle;rounded=0;orthogonalLoop=1;jettySize=auto;html=1;endArrow=diamond;startFill=0;endSize=13;endFill=1;" parent="1" source="NLO29iDs0YhnoxonNSA7-114" target="NLO29iDs0YhnoxonNSA7-14" edge="1">
          <mxGeometry relative="1" as="geometry">
            <Array as="points">
              <mxPoint x="1130" y="-190" />
              <mxPoint x="620" y="-190" />
            </Array>
          </mxGeometry>
        </mxCell>
        <mxCell id="NLO29iDs0YhnoxonNSA7-114" value="Data statistik" style="swimlane;fontStyle=1;align=center;verticalAlign=top;childLayout=stackLayout;horizontal=1;startSize=26;horizontalStack=0;resizeParent=1;resizeParentMax=0;resizeLast=0;collapsible=1;marginBottom=0;whiteSpace=wrap;html=1;" parent="1" vertex="1">
          <mxGeometry x="1050" y="-154" width="160" height="164" as="geometry" />
        </mxCell>
        <mxCell id="NLO29iDs0YhnoxonNSA7-115" value="- kategori : string" style="text;strokeColor=none;fillColor=none;align=left;verticalAlign=top;spacingLeft=4;spacingRight=4;overflow=hidden;rotatable=0;points=[[0,0.5],[1,0.5]];portConstraint=eastwest;whiteSpace=wrap;html=1;" parent="NLO29iDs0YhnoxonNSA7-114" vertex="1">
          <mxGeometry y="26" width="160" height="26" as="geometry" />
        </mxCell>
        <mxCell id="NLO29iDs0YhnoxonNSA7-116" value="- nilai : float" style="text;strokeColor=none;fillColor=none;align=left;verticalAlign=top;spacingLeft=4;spacingRight=4;overflow=hidden;rotatable=0;points=[[0,0.5],[1,0.5]];portConstraint=eastwest;whiteSpace=wrap;html=1;" parent="NLO29iDs0YhnoxonNSA7-114" vertex="1">
          <mxGeometry y="52" width="160" height="26" as="geometry" />
        </mxCell>
        <mxCell id="NLO29iDs0YhnoxonNSA7-117" value="- periode : date" style="text;strokeColor=none;fillColor=none;align=left;verticalAlign=top;spacingLeft=4;spacingRight=4;overflow=hidden;rotatable=0;points=[[0,0.5],[1,0.5]];portConstraint=eastwest;whiteSpace=wrap;html=1;" parent="NLO29iDs0YhnoxonNSA7-114" vertex="1">
          <mxGeometry y="78" width="160" height="26" as="geometry" />
        </mxCell>
        <mxCell id="NLO29iDs0YhnoxonNSA7-119" value="" style="line;strokeWidth=1;fillColor=none;align=left;verticalAlign=middle;spacingTop=-1;spacingLeft=3;spacingRight=3;rotatable=0;labelPosition=right;points=[];portConstraint=eastwest;strokeColor=inherit;" parent="NLO29iDs0YhnoxonNSA7-114" vertex="1">
          <mxGeometry y="104" width="160" height="8" as="geometry" />
        </mxCell>
        <mxCell id="NLO29iDs0YhnoxonNSA7-121" value="+ ambil_data()" style="text;strokeColor=none;fillColor=none;align=left;verticalAlign=top;spacingLeft=4;spacingRight=4;overflow=hidden;rotatable=0;points=[[0,0.5],[1,0.5]];portConstraint=eastwest;whiteSpace=wrap;html=1;" parent="NLO29iDs0YhnoxonNSA7-114" vertex="1">
          <mxGeometry y="112" width="160" height="26" as="geometry" />
        </mxCell>
        <mxCell id="NLO29iDs0YhnoxonNSA7-120" value="+ olah_data()" style="text;strokeColor=none;fillColor=none;align=left;verticalAlign=top;spacingLeft=4;spacingRight=4;overflow=hidden;rotatable=0;points=[[0,0.5],[1,0.5]];portConstraint=eastwest;whiteSpace=wrap;html=1;" parent="NLO29iDs0YhnoxonNSA7-114" vertex="1">
          <mxGeometry y="138" width="160" height="26" as="geometry" />
        </mxCell>
        <mxCell id="NLO29iDs0YhnoxonNSA7-179" style="edgeStyle=orthogonalEdgeStyle;rounded=0;orthogonalLoop=1;jettySize=auto;html=1;dashed=1;dashPattern=8 8;endArrow=block;endFill=0;" parent="1" source="NLO29iDs0YhnoxonNSA7-137" target="NLO29iDs0YhnoxonNSA7-173" edge="1">
          <mxGeometry relative="1" as="geometry">
            <Array as="points">
              <mxPoint x="1150" y="30" />
              <mxPoint x="1240" y="30" />
            </Array>
          </mxGeometry>
        </mxCell>
        <mxCell id="NLO29iDs0YhnoxonNSA7-137" value="User" style="swimlane;fontStyle=1;align=center;verticalAlign=top;childLayout=stackLayout;horizontal=1;startSize=26;horizontalStack=0;resizeParent=1;resizeParentMax=0;resizeLast=0;collapsible=1;marginBottom=0;whiteSpace=wrap;html=1;" parent="1" vertex="1">
          <mxGeometry x="1060" y="150" width="160" height="138" as="geometry" />
        </mxCell>
        <mxCell id="NLO29iDs0YhnoxonNSA7-36" value="- iduser : string" style="text;strokeColor=none;fillColor=none;align=left;verticalAlign=top;spacingLeft=4;spacingRight=4;overflow=hidden;rotatable=0;points=[[0,0.5],[1,0.5]];portConstraint=eastwest;whiteSpace=wrap;html=1;" parent="NLO29iDs0YhnoxonNSA7-137" vertex="1">
          <mxGeometry y="26" width="160" height="26" as="geometry" />
        </mxCell>
        <mxCell id="NLO29iDs0YhnoxonNSA7-190" value="- nama : string" style="text;strokeColor=none;fillColor=none;align=left;verticalAlign=top;spacingLeft=4;spacingRight=4;overflow=hidden;rotatable=0;points=[[0,0.5],[1,0.5]];portConstraint=eastwest;whiteSpace=wrap;html=1;" parent="NLO29iDs0YhnoxonNSA7-137" vertex="1">
          <mxGeometry y="52" width="160" height="26" as="geometry" />
        </mxCell>
        <mxCell id="NLO29iDs0YhnoxonNSA7-189" value="- email : string" style="text;strokeColor=none;fillColor=none;align=left;verticalAlign=top;spacingLeft=4;spacingRight=4;overflow=hidden;rotatable=0;points=[[0,0.5],[1,0.5]];portConstraint=eastwest;whiteSpace=wrap;html=1;" parent="NLO29iDs0YhnoxonNSA7-137" vertex="1">
          <mxGeometry y="78" width="160" height="26" as="geometry" />
        </mxCell>
        <mxCell id="NLO29iDs0YhnoxonNSA7-191" value="- status : boolean" style="text;strokeColor=none;fillColor=none;align=left;verticalAlign=top;spacingLeft=4;spacingRight=4;overflow=hidden;rotatable=0;points=[[0,0.5],[1,0.5]];portConstraint=eastwest;whiteSpace=wrap;html=1;" parent="NLO29iDs0YhnoxonNSA7-137" vertex="1">
          <mxGeometry y="104" width="160" height="26" as="geometry" />
        </mxCell>
        <mxCell id="NLO29iDs0YhnoxonNSA7-140" value="" style="line;strokeWidth=1;fillColor=none;align=left;verticalAlign=middle;spacingTop=-1;spacingLeft=3;spacingRight=3;rotatable=0;labelPosition=right;points=[];portConstraint=eastwest;strokeColor=inherit;" parent="NLO29iDs0YhnoxonNSA7-137" vertex="1">
          <mxGeometry y="130" width="160" height="8" as="geometry" />
        </mxCell>
        <mxCell id="NLO29iDs0YhnoxonNSA7-167" style="edgeStyle=orthogonalEdgeStyle;rounded=0;orthogonalLoop=1;jettySize=auto;html=1;endArrow=none;startFill=0;" parent="1" source="NLO29iDs0YhnoxonNSA7-148" target="NLO29iDs0YhnoxonNSA7-27" edge="1">
          <mxGeometry relative="1" as="geometry" />
        </mxCell>
        <mxCell id="NLO29iDs0YhnoxonNSA7-148" value="Jenis Obat" style="swimlane;fontStyle=1;align=center;verticalAlign=top;childLayout=stackLayout;horizontal=1;startSize=26;horizontalStack=0;resizeParent=1;resizeParentMax=0;resizeLast=0;collapsible=1;marginBottom=0;whiteSpace=wrap;html=1;" parent="1" vertex="1">
          <mxGeometry x="40" y="10" width="160" height="104" as="geometry" />
        </mxCell>
        <mxCell id="NLO29iDs0YhnoxonNSA7-149" value="- tablet :string" style="text;strokeColor=none;fillColor=none;align=left;verticalAlign=top;spacingLeft=4;spacingRight=4;overflow=hidden;rotatable=0;points=[[0,0.5],[1,0.5]];portConstraint=eastwest;whiteSpace=wrap;html=1;" parent="NLO29iDs0YhnoxonNSA7-148" vertex="1">
          <mxGeometry y="26" width="160" height="26" as="geometry" />
        </mxCell>
        <mxCell id="NLO29iDs0YhnoxonNSA7-150" value="- cair : string" style="text;strokeColor=none;fillColor=none;align=left;verticalAlign=top;spacingLeft=4;spacingRight=4;overflow=hidden;rotatable=0;points=[[0,0.5],[1,0.5]];portConstraint=eastwest;whiteSpace=wrap;html=1;" parent="NLO29iDs0YhnoxonNSA7-148" vertex="1">
          <mxGeometry y="52" width="160" height="26" as="geometry" />
        </mxCell>
        <mxCell id="NLO29iDs0YhnoxonNSA7-151" value="- capsule : string" style="text;strokeColor=none;fillColor=none;align=left;verticalAlign=top;spacingLeft=4;spacingRight=4;overflow=hidden;rotatable=0;points=[[0,0.5],[1,0.5]];portConstraint=eastwest;whiteSpace=wrap;html=1;" parent="NLO29iDs0YhnoxonNSA7-148" vertex="1">
          <mxGeometry y="78" width="160" height="26" as="geometry" />
        </mxCell>
        <mxCell id="NLO29iDs0YhnoxonNSA7-173" value="Authenticable" style="swimlane;fontStyle=1;align=center;verticalAlign=top;childLayout=stackLayout;horizontal=1;startSize=26;horizontalStack=0;resizeParent=1;resizeParentMax=0;resizeLast=0;collapsible=1;marginBottom=0;whiteSpace=wrap;html=1;" parent="1" vertex="1">
          <mxGeometry x="1275" y="-76" width="160" height="86" as="geometry" />
        </mxCell>
        <mxCell id="NLO29iDs0YhnoxonNSA7-176" value="" style="line;strokeWidth=1;fillColor=none;align=left;verticalAlign=middle;spacingTop=-1;spacingLeft=3;spacingRight=3;rotatable=0;labelPosition=right;points=[];portConstraint=eastwest;strokeColor=inherit;" parent="NLO29iDs0YhnoxonNSA7-173" vertex="1">
          <mxGeometry y="26" width="160" height="8" as="geometry" />
        </mxCell>
        <mxCell id="NLO29iDs0YhnoxonNSA7-136" value="+ logout()" style="text;strokeColor=none;fillColor=none;align=left;verticalAlign=top;spacingLeft=4;spacingRight=4;overflow=hidden;rotatable=0;points=[[0,0.5],[1,0.5]];portConstraint=eastwest;whiteSpace=wrap;html=1;" parent="NLO29iDs0YhnoxonNSA7-173" vertex="1">
          <mxGeometry y="34" width="160" height="26" as="geometry" />
        </mxCell>
        <mxCell id="NLO29iDs0YhnoxonNSA7-178" value="+ login()" style="text;strokeColor=none;fillColor=none;align=left;verticalAlign=top;spacingLeft=4;spacingRight=4;overflow=hidden;rotatable=0;points=[[0,0.5],[1,0.5]];portConstraint=eastwest;whiteSpace=wrap;html=1;" parent="NLO29iDs0YhnoxonNSA7-173" vertex="1">
          <mxGeometry y="60" width="160" height="26" as="geometry" />
        </mxCell>
        <mxCell id="NLO29iDs0YhnoxonNSA7-209" style="edgeStyle=orthogonalEdgeStyle;rounded=0;orthogonalLoop=1;jettySize=auto;html=1;endArrow=block;startFill=0;endFill=0;" parent="1" source="NLO29iDs0YhnoxonNSA7-192" target="NLO29iDs0YhnoxonNSA7-137" edge="1">
          <mxGeometry relative="1" as="geometry">
            <Array as="points">
              <mxPoint x="1270" y="142" />
              <mxPoint x="1270" y="219" />
            </Array>
          </mxGeometry>
        </mxCell>
        <mxCell id="NLO29iDs0YhnoxonNSA7-192" value="Account" style="swimlane;fontStyle=1;align=center;verticalAlign=top;childLayout=stackLayout;horizontal=1;startSize=26;horizontalStack=0;resizeParent=1;resizeParentMax=0;resizeLast=0;collapsible=1;marginBottom=0;whiteSpace=wrap;html=1;" parent="1" vertex="1">
          <mxGeometry x="1320" y="60" width="160" height="164" as="geometry" />
        </mxCell>
        <mxCell id="NLO29iDs0YhnoxonNSA7-198" value="- password : string" style="text;strokeColor=none;fillColor=none;align=left;verticalAlign=top;spacingLeft=4;spacingRight=4;overflow=hidden;rotatable=0;points=[[0,0.5],[1,0.5]];portConstraint=eastwest;whiteSpace=wrap;html=1;" parent="NLO29iDs0YhnoxonNSA7-192" vertex="1">
          <mxGeometry y="26" width="160" height="26" as="geometry" />
        </mxCell>
        <mxCell id="NLO29iDs0YhnoxonNSA7-39" value="- username : string" style="text;strokeColor=none;fillColor=none;align=left;verticalAlign=top;spacingLeft=4;spacingRight=4;overflow=hidden;rotatable=0;points=[[0,0.5],[1,0.5]];portConstraint=eastwest;whiteSpace=wrap;html=1;" parent="NLO29iDs0YhnoxonNSA7-192" vertex="1">
          <mxGeometry y="52" width="160" height="26" as="geometry" />
        </mxCell>
        <mxCell id="NLO29iDs0YhnoxonNSA7-208" value="- trakhir_login" style="text;strokeColor=none;fillColor=none;align=left;verticalAlign=top;spacingLeft=4;spacingRight=4;overflow=hidden;rotatable=0;points=[[0,0.5],[1,0.5]];portConstraint=eastwest;whiteSpace=wrap;html=1;" parent="NLO29iDs0YhnoxonNSA7-192" vertex="1">
          <mxGeometry y="78" width="160" height="26" as="geometry" />
        </mxCell>
        <mxCell id="NLO29iDs0YhnoxonNSA7-197" value="" style="line;strokeWidth=1;fillColor=none;align=left;verticalAlign=middle;spacingTop=-1;spacingLeft=3;spacingRight=3;rotatable=0;labelPosition=right;points=[];portConstraint=eastwest;strokeColor=inherit;" parent="NLO29iDs0YhnoxonNSA7-192" vertex="1">
          <mxGeometry y="104" width="160" height="8" as="geometry" />
        </mxCell>
        <mxCell id="NLO29iDs0YhnoxonNSA7-203" value="+ ubah_password()" style="text;strokeColor=none;fillColor=none;align=left;verticalAlign=top;spacingLeft=4;spacingRight=4;overflow=hidden;rotatable=0;points=[[0,0.5],[1,0.5]];portConstraint=eastwest;whiteSpace=wrap;html=1;" parent="NLO29iDs0YhnoxonNSA7-192" vertex="1">
          <mxGeometry y="112" width="160" height="26" as="geometry" />
        </mxCell>
        <mxCell id="NLO29iDs0YhnoxonNSA7-204" value="+ verifikasi_login()" style="text;strokeColor=none;fillColor=none;align=left;verticalAlign=top;spacingLeft=4;spacingRight=4;overflow=hidden;rotatable=0;points=[[0,0.5],[1,0.5]];portConstraint=eastwest;whiteSpace=wrap;html=1;" parent="NLO29iDs0YhnoxonNSA7-192" vertex="1">
          <mxGeometry y="138" width="160" height="26" as="geometry" />
        </mxCell>
        <mxCell id="NLO29iDs0YhnoxonNSA7-199" value="akses" style="swimlane;fontStyle=1;align=center;verticalAlign=top;childLayout=stackLayout;horizontal=1;startSize=26;horizontalStack=0;resizeParent=1;resizeParentMax=0;resizeLast=0;collapsible=1;marginBottom=0;whiteSpace=wrap;html=1;" parent="1" vertex="1">
          <mxGeometry x="1320" y="270" width="160" height="164" as="geometry" />
        </mxCell>
        <mxCell id="NLO29iDs0YhnoxonNSA7-200" value="- idakses : string" style="text;strokeColor=none;fillColor=none;align=left;verticalAlign=top;spacingLeft=4;spacingRight=4;overflow=hidden;rotatable=0;points=[[0,0.5],[1,0.5]];portConstraint=eastwest;whiteSpace=wrap;html=1;" parent="NLO29iDs0YhnoxonNSA7-199" vertex="1">
          <mxGeometry y="26" width="160" height="26" as="geometry" />
        </mxCell>
        <mxCell id="NLO29iDs0YhnoxonNSA7-201" value="- role : string" style="text;strokeColor=none;fillColor=none;align=left;verticalAlign=top;spacingLeft=4;spacingRight=4;overflow=hidden;rotatable=0;points=[[0,0.5],[1,0.5]];portConstraint=eastwest;whiteSpace=wrap;html=1;" parent="NLO29iDs0YhnoxonNSA7-199" vertex="1">
          <mxGeometry y="52" width="160" height="26" as="geometry" />
        </mxCell>
        <mxCell id="NLO29iDs0YhnoxonNSA7-205" value="- fitur_diizinkan : list(string)" style="text;strokeColor=none;fillColor=none;align=left;verticalAlign=top;spacingLeft=4;spacingRight=4;overflow=hidden;rotatable=0;points=[[0,0.5],[1,0.5]];portConstraint=eastwest;whiteSpace=wrap;html=1;" parent="NLO29iDs0YhnoxonNSA7-199" vertex="1">
          <mxGeometry y="78" width="160" height="26" as="geometry" />
        </mxCell>
        <mxCell id="NLO29iDs0YhnoxonNSA7-202" value="" style="line;strokeWidth=1;fillColor=none;align=left;verticalAlign=middle;spacingTop=-1;spacingLeft=3;spacingRight=3;rotatable=0;labelPosition=right;points=[];portConstraint=eastwest;strokeColor=inherit;" parent="NLO29iDs0YhnoxonNSA7-199" vertex="1">
          <mxGeometry y="104" width="160" height="8" as="geometry" />
        </mxCell>
        <mxCell id="NLO29iDs0YhnoxonNSA7-206" value="+ tampilkan_akses()" style="text;strokeColor=none;fillColor=none;align=left;verticalAlign=top;spacingLeft=4;spacingRight=4;overflow=hidden;rotatable=0;points=[[0,0.5],[1,0.5]];portConstraint=eastwest;whiteSpace=wrap;html=1;" parent="NLO29iDs0YhnoxonNSA7-199" vertex="1">
          <mxGeometry y="112" width="160" height="26" as="geometry" />
        </mxCell>
        <mxCell id="NLO29iDs0YhnoxonNSA7-207" value="+ bvalidasi_akses(fitur)" style="text;strokeColor=none;fillColor=none;align=left;verticalAlign=top;spacingLeft=4;spacingRight=4;overflow=hidden;rotatable=0;points=[[0,0.5],[1,0.5]];portConstraint=eastwest;whiteSpace=wrap;html=1;" parent="NLO29iDs0YhnoxonNSA7-199" vertex="1">
          <mxGeometry y="138" width="160" height="26" as="geometry" />
        </mxCell>
        <mxCell id="NLO29iDs0YhnoxonNSA7-210" style="edgeStyle=orthogonalEdgeStyle;rounded=0;orthogonalLoop=1;jettySize=auto;html=1;endArrow=block;startFill=0;startArrow=none;endFill=0;" parent="1" source="NLO29iDs0YhnoxonNSA7-199" target="NLO29iDs0YhnoxonNSA7-137" edge="1">
          <mxGeometry relative="1" as="geometry">
            <Array as="points">
              <mxPoint x="1280" y="360" />
              <mxPoint x="1280" y="240" />
            </Array>
          </mxGeometry>
        </mxCell>
        <mxCell id="NLO29iDs0YhnoxonNSA7-211" value="1" style="text;html=1;align=center;verticalAlign=middle;resizable=0;points=[];autosize=1;strokeColor=none;fillColor=none;" parent="1" vertex="1">
          <mxGeometry x="1220" y="194" width="30" height="30" as="geometry" />
        </mxCell>
        <mxCell id="NLO29iDs0YhnoxonNSA7-212" value="1" style="text;html=1;align=center;verticalAlign=middle;resizable=0;points=[];autosize=1;strokeColor=none;fillColor=none;" parent="1" vertex="1">
          <mxGeometry x="1290" y="114" width="30" height="30" as="geometry" />
        </mxCell>
        <mxCell id="NLO29iDs0YhnoxonNSA7-213" value="1..*" style="text;html=1;align=center;verticalAlign=middle;resizable=0;points=[];autosize=1;strokeColor=none;fillColor=none;" parent="1" vertex="1">
          <mxGeometry x="1215" y="240" width="40" height="30" as="geometry" />
        </mxCell>
        <mxCell id="NLO29iDs0YhnoxonNSA7-215" value="1" style="text;html=1;align=center;verticalAlign=middle;resizable=0;points=[];autosize=1;strokeColor=none;fillColor=none;" parent="1" vertex="1">
          <mxGeometry x="1110" y="120" width="30" height="30" as="geometry" />
        </mxCell>
        <mxCell id="NLO29iDs0YhnoxonNSA7-216" value="1..*" style="text;html=1;align=center;verticalAlign=middle;resizable=0;points=[];autosize=1;strokeColor=none;fillColor=none;" parent="1" vertex="1">
          <mxGeometry x="930" y="-140" width="40" height="30" as="geometry" />
        </mxCell>
        <mxCell id="NLO29iDs0YhnoxonNSA7-223" style="edgeStyle=orthogonalEdgeStyle;rounded=0;orthogonalLoop=1;jettySize=auto;html=1;endArrow=blockThin;endFill=1;" parent="1" source="NLO29iDs0YhnoxonNSA7-106" target="NLO29iDs0YhnoxonNSA7-114" edge="1">
          <mxGeometry relative="1" as="geometry">
            <mxPoint x="1015" y="-45" as="sourcePoint" />
            <mxPoint x="1050" y="-140" as="targetPoint" />
            <Array as="points">
              <mxPoint x="935" y="-140" />
            </Array>
          </mxGeometry>
        </mxCell>
        <mxCell id="NLO29iDs0YhnoxonNSA7-224" value="1" style="text;html=1;align=center;verticalAlign=middle;resizable=0;points=[];autosize=1;strokeColor=none;fillColor=none;" parent="1" vertex="1">
          <mxGeometry x="200" y="300" width="30" height="30" as="geometry" />
        </mxCell>
        <mxCell id="NLO29iDs0YhnoxonNSA7-225" value="0..*" style="text;html=1;align=center;verticalAlign=middle;resizable=0;points=[];autosize=1;strokeColor=none;fillColor=none;" parent="1" vertex="1">
          <mxGeometry x="500" y="300" width="40" height="30" as="geometry" />
        </mxCell>
        <mxCell id="NLO29iDs0YhnoxonNSA7-226" value="1" style="text;html=1;align=center;verticalAlign=middle;resizable=0;points=[];autosize=1;strokeColor=none;fillColor=none;" parent="1" vertex="1">
          <mxGeometry x="1030" y="240" width="30" height="30" as="geometry" />
        </mxCell>
        <mxCell id="NLO29iDs0YhnoxonNSA7-227" value="0..*" style="text;html=1;align=center;verticalAlign=middle;resizable=0;points=[];autosize=1;strokeColor=none;fillColor=none;" parent="1" vertex="1">
          <mxGeometry x="740" y="258" width="40" height="30" as="geometry" />
        </mxCell>
        <mxCell id="NLO29iDs0YhnoxonNSA7-228" value="0..*" style="text;html=1;align=center;verticalAlign=middle;resizable=0;points=[];autosize=1;strokeColor=none;fillColor=none;" parent="1" vertex="1">
          <mxGeometry x="700" y="-70" width="40" height="30" as="geometry" />
        </mxCell>
        <mxCell id="NLO29iDs0YhnoxonNSA7-230" value="1..*" style="text;html=1;align=center;verticalAlign=middle;resizable=0;points=[];autosize=1;strokeColor=none;fillColor=none;" parent="1" vertex="1">
          <mxGeometry x="500" y="519" width="40" height="30" as="geometry" />
        </mxCell>
        <mxCell id="NLO29iDs0YhnoxonNSA7-232" value="1..*" style="text;html=1;align=center;verticalAlign=middle;resizable=0;points=[];autosize=1;strokeColor=none;fillColor=none;" parent="1" vertex="1">
          <mxGeometry x="200" y="360" width="40" height="30" as="geometry" />
        </mxCell>
        <mxCell id="NLO29iDs0YhnoxonNSA7-233" value="1" style="text;html=1;align=center;verticalAlign=middle;resizable=0;points=[];autosize=1;strokeColor=none;fillColor=none;" parent="1" vertex="1">
          <mxGeometry x="1110" y="288" width="30" height="30" as="geometry" />
        </mxCell>
        <mxCell id="NLO29iDs0YhnoxonNSA7-234" value="0..*" style="text;html=1;align=center;verticalAlign=middle;resizable=0;points=[];autosize=1;strokeColor=none;fillColor=none;" parent="1" vertex="1">
          <mxGeometry x="700" y="470" width="40" height="30" as="geometry" />
        </mxCell>
        <mxCell id="NLO29iDs0YhnoxonNSA7-235" value="1" style="text;html=1;align=center;verticalAlign=middle;resizable=0;points=[];autosize=1;strokeColor=none;fillColor=none;" parent="1" vertex="1">
          <mxGeometry x="1030" y="190" width="30" height="30" as="geometry" />
        </mxCell>
        <mxCell id="NLO29iDs0YhnoxonNSA7-237" value="0..*" style="text;html=1;align=center;verticalAlign=middle;resizable=0;points=[];autosize=1;strokeColor=none;fillColor=none;" parent="1" vertex="1">
          <mxGeometry x="730" y="70" width="40" height="30" as="geometry" />
        </mxCell>
        <mxCell id="NLO29iDs0YhnoxonNSA7-238" style="edgeStyle=orthogonalEdgeStyle;rounded=0;orthogonalLoop=1;jettySize=auto;html=1;startArrow=none;startFill=0;startSize=13;endSize=9;endArrow=none;endFill=1;" parent="1" edge="1">
          <mxGeometry relative="1" as="geometry">
            <mxPoint x="540" y="64" as="sourcePoint" />
            <mxPoint x="540" y="434" as="targetPoint" />
            <Array as="points">
              <mxPoint x="540" y="140" />
              <mxPoint x="490" y="140" />
              <mxPoint x="490" y="470" />
              <mxPoint x="540" y="470" />
            </Array>
          </mxGeometry>
        </mxCell>
        <mxCell id="NLO29iDs0YhnoxonNSA7-239" style="edgeStyle=orthogonalEdgeStyle;rounded=0;orthogonalLoop=1;jettySize=auto;html=1;startArrow=none;startFill=0;endArrow=none;endFill=1;endSize=9;startSize=13;" parent="1" edge="1">
          <mxGeometry relative="1" as="geometry">
            <mxPoint x="540" y="159" as="sourcePoint" />
            <mxPoint x="540" y="259" as="targetPoint" />
            <Array as="points">
              <mxPoint x="510" y="159" />
              <mxPoint x="510" y="259" />
            </Array>
          </mxGeometry>
        </mxCell>
        <mxCell id="NLO29iDs0YhnoxonNSA7-240" value="1" style="text;html=1;align=center;verticalAlign=middle;resizable=0;points=[];autosize=1;strokeColor=none;fillColor=none;" parent="1" vertex="1">
          <mxGeometry x="200" y="228" width="30" height="30" as="geometry" />
        </mxCell>
        <mxCell id="NLO29iDs0YhnoxonNSA7-241" value="0..*" style="text;html=1;align=center;verticalAlign=middle;resizable=0;points=[];autosize=1;strokeColor=none;fillColor=none;" parent="1" vertex="1">
          <mxGeometry x="490" y="70" width="40" height="30" as="geometry" />
        </mxCell>
        <mxCell id="NLO29iDs0YhnoxonNSA7-243" value="1..*" style="text;html=1;align=center;verticalAlign=middle;resizable=0;points=[];autosize=1;strokeColor=none;fillColor=none;" parent="1" vertex="1">
          <mxGeometry x="500" y="-154" width="40" height="30" as="geometry" />
        </mxCell>
        <mxCell id="NLO29iDs0YhnoxonNSA7-244" value="1..*" style="text;html=1;align=center;verticalAlign=middle;resizable=0;points=[];autosize=1;strokeColor=none;fillColor=none;" parent="1" vertex="1">
          <mxGeometry x="500" y="-110" width="40" height="30" as="geometry" />
        </mxCell>
        <mxCell id="NLO29iDs0YhnoxonNSA7-245" value="1..*" style="text;html=1;align=center;verticalAlign=middle;resizable=0;points=[];autosize=1;strokeColor=none;fillColor=none;" parent="1" vertex="1">
          <mxGeometry x="500" y="-70" width="40" height="30" as="geometry" />
        </mxCell>
        <mxCell id="NLO29iDs0YhnoxonNSA7-249" value="&lt;h3 data-start=&quot;1615&quot; data-end=&quot;1636&quot;&gt;Contoh Relasi :&lt;/h3&gt;&lt;ul data-start=&quot;1637&quot; data-end=&quot;1788&quot;&gt;&lt;li data-start=&quot;1637&quot; data-end=&quot;1788&quot;&gt;&lt;p data-start=&quot;1639&quot; data-end=&quot;1788&quot;&gt;&lt;code data-start=&quot;1639&quot; data-end=&quot;1645&quot;&gt;User&lt;/code&gt; - - -▷ &lt;code data-start=&quot;1653&quot; data-end=&quot;1668&quot;&gt;Authenticable&lt;/code&gt; (Interface)&lt;br data-start=&quot;1680&quot; data-end=&quot;1683&quot;&gt;&lt;br&gt;➤ &lt;strong data-start=&quot;1687&quot; data-end=&quot;1697&quot;&gt;Relasi&lt;/strong&gt;: User harus mengimplementasikan login/logout&lt;br data-start=&quot;1742&quot; data-end=&quot;1745&quot;&gt;&lt;br&gt;➤ &lt;strong data-start=&quot;1749&quot; data-end=&quot;1759&quot;&gt;Bentuk&lt;/strong&gt;: &lt;code data-start=&quot;1761&quot; data-end=&quot;1788&quot;&gt;User - - -▷ Authenticable&lt;/code&gt;&lt;/p&gt;&lt;/li&gt;&lt;/ul&gt;&lt;p data-start=&quot;1790&quot; data-end=&quot;1883&quot;&gt;📌 &lt;strong data-start=&quot;1793&quot; data-end=&quot;1804&quot;&gt;Artinya&lt;/strong&gt;: Setiap class turunan dari &lt;code data-start=&quot;1832&quot; data-end=&quot;1838&quot;&gt;User&lt;/code&gt; harus punya metode &lt;code data-start=&quot;1858&quot; data-end=&quot;1867&quot;&gt;login()&lt;/code&gt; dan &lt;code data-start=&quot;1872&quot; data-end=&quot;1882&quot;&gt;logout()&lt;/code&gt;.&lt;/p&gt;" style="rounded=0;whiteSpace=wrap;html=1;align=left;" parent="1" vertex="1">
          <mxGeometry x="1280" y="-260" width="540" height="170" as="geometry" />
        </mxCell>
        <mxCell id="NLO29iDs0YhnoxonNSA7-250" value="&lt;h2 data-end=&quot;1347&quot; data-start=&quot;1318&quot;&gt;&lt;strong data-end=&quot;1345&quot; data-start=&quot;1323&quot;&gt;Inheritance (▷)&lt;/strong&gt;&lt;/h2&gt;&lt;h3 data-end=&quot;1369&quot; data-start=&quot;1348&quot;&gt;🔁 Contoh Relasi&lt;/h3&gt;&lt;h3 data-start=&quot;1615&quot; data-end=&quot;1636&quot;&gt;&lt;ul data-end=&quot;1502&quot; data-start=&quot;1370&quot;&gt;&lt;li data-end=&quot;1502&quot; data-start=&quot;1394&quot;&gt;&lt;p data-end=&quot;1502&quot; data-start=&quot;1396&quot;&gt;➤ &lt;strong data-end=&quot;1429&quot; data-start=&quot;1419&quot;&gt;Relasi&lt;/strong&gt;: account dan akses mewarisi User&lt;br data-end=&quot;1466&quot; data-start=&quot;1463&quot;&gt;&lt;br&gt;➤ &lt;strong data-end=&quot;1480&quot; data-start=&quot;1470&quot;&gt;Bentuk&lt;/strong&gt;: &lt;code data-end=&quot;1502&quot; data-start=&quot;1482&quot;&gt;account/akses───▷ User&lt;/code&gt;&lt;/p&gt;&lt;/li&gt;&lt;/ul&gt;&lt;p data-end=&quot;1571&quot; data-start=&quot;1504&quot;&gt;📌 &lt;strong data-end=&quot;1518&quot; data-start=&quot;1507&quot;&gt;Artinya&lt;/strong&gt;: Semua role adalah User, tapi dengan fungsi berbeda.&lt;/p&gt;&lt;/h3&gt;" style="rounded=0;whiteSpace=wrap;html=1;align=left;" parent="1" vertex="1">
          <mxGeometry x="1170" y="458" width="540" height="170" as="geometry" />
        </mxCell>
        <mxCell id="NLO29iDs0YhnoxonNSA7-251" value="&lt;h2 data-end=&quot;1039&quot; data-start=&quot;1010&quot;&gt;&lt;strong data-end=&quot;1037&quot; data-start=&quot;1015&quot;&gt;&amp;nbsp;Composition (◆)&lt;/strong&gt;&lt;/h2&gt;&lt;h3 data-end=&quot;1061&quot; data-start=&quot;1040&quot;&gt;🔁 Contoh Relasi:&lt;/h3&gt;&lt;h2 data-end=&quot;1347&quot; data-start=&quot;1318&quot;&gt;&lt;ul data-end=&quot;1232&quot; data-start=&quot;1062&quot;&gt;&lt;li data-end=&quot;1232&quot; data-start=&quot;1062&quot;&gt;&lt;p data-end=&quot;1232&quot; data-start=&quot;1064&quot;&gt;&lt;code data-end=&quot;1079&quot; data-start=&quot;1064&quot;&gt;TransaksiObat&lt;/code&gt; ◆── &lt;code data-end=&quot;1101&quot; data-start=&quot;1084&quot;&gt;riwayat transaksi&lt;/code&gt;&lt;br data-end=&quot;1182&quot; data-start=&quot;1179&quot;&gt;&lt;br&gt;➤ &lt;strong data-end=&quot;1196&quot; data-start=&quot;1186&quot;&gt;Bentuk&lt;/strong&gt;: &lt;code data-end=&quot;1232&quot; data-start=&quot;1198&quot;&gt;Transaksi ◆────▶ riwayatTransaksi&lt;/code&gt;&lt;/p&gt;&lt;/li&gt;&lt;/ul&gt;&lt;p data-end=&quot;1311&quot; data-start=&quot;1234&quot;&gt;📌 &lt;strong data-end=&quot;1248&quot; data-start=&quot;1237&quot;&gt;Artinya&lt;/strong&gt;: Jika transaksi dihapus, seluruh riwayat juga ikut terhapus.&lt;/p&gt;&lt;/h2&gt;" style="rounded=0;whiteSpace=wrap;html=1;align=left;" parent="1" vertex="1">
          <mxGeometry x="450" y="690" width="650" height="240" as="geometry" />
        </mxCell>
        <mxCell id="NLO29iDs0YhnoxonNSA7-252" value="&lt;h2 data-end=&quot;724&quot; data-start=&quot;695&quot;&gt;&lt;strong data-end=&quot;722&quot; data-start=&quot;700&quot;&gt;Aggregation (◇)&lt;/strong&gt;&lt;/h2&gt;&lt;h3 data-end=&quot;746&quot; data-start=&quot;725&quot;&gt;🔁 Contoh Relasi:&lt;/h3&gt;&lt;h2 data-end=&quot;1039&quot; data-start=&quot;1010&quot;&gt;&lt;ul data-end=&quot;883&quot; data-start=&quot;747&quot;&gt;&lt;li data-end=&quot;883&quot; data-start=&quot;747&quot;&gt;&lt;p data-end=&quot;883&quot; data-start=&quot;749&quot;&gt;&lt;code data-end=&quot;758&quot; data-start=&quot;749&quot;&gt;Laporan&lt;/code&gt; ◇── &lt;code data-end=&quot;778&quot; data-start=&quot;763&quot;&gt;TransaksiObat&lt;/code&gt;&lt;br data-end=&quot;781&quot; data-start=&quot;778&quot;&gt;&lt;br&gt;➤ &lt;strong data-end=&quot;795&quot; data-start=&quot;785&quot;&gt;Relasi&lt;/strong&gt;: Laporan terdiri dari banyak transaksi&lt;br data-end=&quot;837&quot; data-start=&quot;834&quot;&gt;&lt;br&gt;➤ &lt;strong data-end=&quot;851&quot; data-start=&quot;841&quot;&gt;Bentuk&lt;/strong&gt;: &lt;code data-end=&quot;883&quot; data-start=&quot;853&quot;&gt;Laporan ◇────▶ TransaksiObat&lt;/code&gt;&lt;/p&gt;&lt;/li&gt;&lt;/ul&gt;&lt;p data-end=&quot;1003&quot; data-start=&quot;885&quot;&gt;📌 &lt;strong data-end=&quot;899&quot; data-start=&quot;888&quot;&gt;Artinya&lt;/strong&gt;: Transaksi bisa ada sendiri (tercatat secara individual), tetapi juga bisa menjadi bagian dari laporan.&lt;/p&gt;&lt;/h2&gt;" style="rounded=0;whiteSpace=wrap;html=1;align=left;" parent="1" vertex="1">
          <mxGeometry x="-105" y="-450" width="650" height="270" as="geometry" />
        </mxCell>
        <mxCell id="NLO29iDs0YhnoxonNSA7-253" value="&lt;h2 data-end=&quot;450&quot; data-start=&quot;416&quot;&gt;&lt;strong data-end=&quot;448&quot; data-start=&quot;421&quot;&gt;Directed Association&lt;/strong&gt;&lt;/h2&gt;&lt;h3 data-end=&quot;472&quot; data-start=&quot;451&quot;&gt;🔁 Contoh Relasi:&lt;/h3&gt;&lt;h2 data-end=&quot;724&quot; data-start=&quot;695&quot;&gt;&lt;ul data-end=&quot;570&quot; data-start=&quot;473&quot;&gt;&lt;li data-end=&quot;570&quot; data-start=&quot;473&quot;&gt;&lt;p data-end=&quot;570&quot; data-start=&quot;475&quot;&gt;&lt;code data-end=&quot;481&quot; data-start=&quot;475&quot;&gt;User&lt;/code&gt; → &lt;code data-end=&quot;493&quot; data-start=&quot;484&quot;&gt;Laporan&lt;/code&gt;&lt;br data-end=&quot;496&quot; data-start=&quot;493&quot;&gt;&lt;br&gt;➤ &lt;strong data-end=&quot;510&quot; data-start=&quot;500&quot;&gt;Relasi&lt;/strong&gt;: User membuat laporan&lt;br data-end=&quot;535&quot; data-start=&quot;532&quot;&gt;&lt;br&gt;➤ &lt;strong data-end=&quot;549&quot; data-start=&quot;539&quot;&gt;Bentuk&lt;/strong&gt;: &lt;code data-end=&quot;570&quot; data-start=&quot;551&quot;&gt;User ───▶ Laporan&lt;/code&gt;&lt;/p&gt;&lt;/li&gt;&lt;/ul&gt;&lt;p data-end=&quot;688&quot; data-start=&quot;572&quot;&gt;📌 &lt;strong data-end=&quot;586&quot; data-start=&quot;575&quot;&gt;Artinya&lt;/strong&gt;: Setiap pengguna dapat membuat laporan, tapi laporan tidak harus tahu siapa user-nya secara langsung.&lt;/p&gt;&lt;/h2&gt;" style="rounded=0;whiteSpace=wrap;html=1;align=left;" parent="1" vertex="1">
          <mxGeometry x="640" y="-650" width="650" height="270" as="geometry" />
        </mxCell>
        <mxCell id="NLO29iDs0YhnoxonNSA7-254" value="&lt;h2 data-end=&quot;183&quot; data-start=&quot;158&quot;&gt;&lt;strong data-end=&quot;181&quot; data-start=&quot;163&quot;&gt;Association&lt;/strong&gt;&lt;/h2&gt;&lt;h3 data-end=&quot;205&quot; data-start=&quot;184&quot;&gt;🔁 Contoh Relasi:&lt;/h3&gt;&lt;h2 data-end=&quot;450&quot; data-start=&quot;416&quot;&gt;&lt;ul data-end=&quot;312&quot; data-start=&quot;206&quot;&gt;&lt;li data-end=&quot;312&quot; data-start=&quot;206&quot;&gt;&lt;p data-end=&quot;312&quot; data-start=&quot;208&quot;&gt;&lt;code data-end=&quot;214&quot; data-start=&quot;208&quot;&gt;Obat&lt;/code&gt; — &lt;code data-end=&quot;227&quot; data-start=&quot;217&quot;&gt;jenis&lt;/code&gt;&lt;br data-end=&quot;230&quot; data-start=&quot;227&quot;&gt;&lt;br&gt;➤ &lt;strong data-end=&quot;244&quot; data-start=&quot;234&quot;&gt;Relasi&lt;/strong&gt;: Obat terkait dengan Kategori&lt;br data-end=&quot;277&quot; data-start=&quot;274&quot;&gt;&lt;br&gt;➤ &lt;strong data-end=&quot;291&quot; data-start=&quot;281&quot;&gt;Bentuk&lt;/strong&gt;: &lt;code data-end=&quot;312&quot; data-start=&quot;293&quot;&gt;Obat ─── jenis&lt;/code&gt;&lt;/p&gt;&lt;/li&gt;&lt;/ul&gt;&lt;p data-end=&quot;409&quot; data-start=&quot;314&quot;&gt;📌 &lt;strong data-end=&quot;328&quot; data-start=&quot;317&quot;&gt;Artinya&lt;/strong&gt;: Setiap data obat memiliki 1 jenis, dan 1 kategori bisa memiliki banyak obat.&lt;/p&gt;&lt;/h2&gt;" style="rounded=0;whiteSpace=wrap;html=1;align=left;" parent="1" vertex="1">
          <mxGeometry x="-410" y="471" width="650" height="270" as="geometry" />
        </mxCell>
        <mxCell id="NLO29iDs0YhnoxonNSA7-255" value="1..*" style="text;html=1;align=center;verticalAlign=middle;resizable=0;points=[];autosize=1;strokeColor=none;fillColor=none;" parent="1" vertex="1">
          <mxGeometry x="80" y="150" width="40" height="30" as="geometry" />
        </mxCell>
        <mxCell id="NLO29iDs0YhnoxonNSA7-256" value="1..*" style="text;html=1;align=center;verticalAlign=middle;resizable=0;points=[];autosize=1;strokeColor=none;fillColor=none;" parent="1" vertex="1">
          <mxGeometry x="80" y="114" width="40" height="30" as="geometry" />
        </mxCell>
      </root>
    </mxGraphModel>
  </diagram>
</mxfile>
